<?xml version="1.0" encoding="UTF-8"?>
<svg id="Camada_4" data-name="Camada 4" xmlns="http://www.w3.org/2000/svg" viewBox="0 0 2441.87 2453.56">
  <defs>
    <style>
      .cls-1 {
        opacity: .99;
      }

      .cls-1, .cls-2, .cls-3, .cls-4, .cls-5, .cls-6, .cls-7, .cls-8 {
        fill-rule: evenodd;
      }

      .cls-1, .cls-3, .cls-4, .cls-5, .cls-6 {
        fill: #fff;
      }

      .cls-1, .cls-3, .cls-4, .cls-5, .cls-6, .cls-7, .cls-8 {
        isolation: isolate;
      }

      .cls-2 {
        fill: #25d366;
      }

      .cls-3 {
        opacity: .97;
      }

      .cls-4 {
        opacity: .99;
      }

      .cls-5 {
        opacity: .99;
      }

      .cls-6 {
        opacity: 1;
      }

      .cls-7 {
        fill: #010101;
        opacity: .04;
      }

      .cls-8 {
        fill: #fdfefd;
        opacity: 1;
      }
    </style>
  </defs>
  <g id="Camada_1" data-name="Camada 1">
    <path class="cls-7" d="M1158.21.18c447.95-6.66,804.14,168.51,1068.58,525.53,249.14,391.67,281.84,800.42,98.1,1226.24-199.77,387.95-516.26,615.68-949.46,683.19-256.77,28.25-500.84-14.96-732.24-129.63-178.83,47.33-357.51,95.22-536.04,143.64-74.71,16.37-106.24-12.83-94.6-87.59,47.2-175.97,92.75-352.31,136.64-529.03-27.71-65.96-54.57-132.53-80.58-199.7C-74.96,1175.84,6.79,764.77,313.86,399.59,543.9,157.86,825.35,24.72,1158.21.18Z"/>
    <path class="cls-8" d="M1088.14,14.2c507.95-31.59,894.51,166.94,1159.67,595.6,178.41,339.57,197.09,687.59,56.06,1044.05-217.32,449.88-577.02,688.12-1079.09,714.72-203.02-4.62-394.55-53.67-574.58-147.15-196.7,52.67-392.9,106.4-588.59,161.16-5.84-5.84-11.68-11.68-17.52-17.52,54.88-191.55,106.27-384.25,154.16-578.08-56.25-111.49-99.46-228.28-129.63-350.35C-17.01,938.83,138.31,535.93,534.58,227.91,702.72,113.1,887.24,41.87,1088.14,14.2Z"/>
    <path class="cls-2" d="M1109.16,273.46c448.73-23.91,769.89,165.28,963.47,567.57,142.24,413.92,52.32,767.78-269.77,1061.57-272.95,206.02-571.91,255.07-896.9,147.15-65.52-28.67-129.76-60.2-192.69-94.6-107.7,34.22-216.31,64.58-325.83,91.09-1.14-16.52.02-32.86,3.5-49.05,28.29-91.86,55.15-184.12,80.58-276.78-179.29-285.26-208.49-585.4-87.59-900.41,149.4-305.29,391.14-487.47,725.23-546.55Z"/>
  </g>
  <g id="Camada_3" data-name="Camada 3">
    <g id="Camada_2" data-name="Camada 2">
      <g>
        <path class="cls-3" d="M1352.83,345.83c42.44-4.31,76.6,10.29,102.46,43.78,5.97,8.73,9.18,18.36,9.63,28.9.42,5.06-1.04,9.44-4.38,13.14-13.22,11.47-26.93,22.27-41.16,32.4-37.62,30.6-53.09,70-46.41,118.22-18.86-27.48-23.54-57.26-14.01-89.32,7.4-14.79,13.82-29.97,19.27-45.54,4.73-39.86-8.99-71.68-41.16-95.45,5.38-2.27,10.63-4.31,15.76-6.13Z"/>
        <path class="cls-6" d="M1562.07,394.77c-3.5,168.71-4.67,338.01-3.5,507.91-35.6,18.97-73.55,30.35-113.84,34.15,37.05,10.58,74.86,14.25,113.44,11.01l.4.37v894.96c-111.72,93.17-240.74,143.67-387.06,151.5,104.45-48.69,191.43-119.03,260.96-211.04-30.16,10.54-61.1,20.76-92.82,30.65-36.79,10.33-74.15,17.63-112.09,21.89-.38-2.06.2-3.81,1.75-5.25,118.85-83.24,180.73-197.96,185.65-344.15-.59-27.45-3.8-54.6-9.63-81.44-15.93,96.13-60.01,176.11-132.23,239.94V564.66c41.37,12.33,81.94,26.93,121.72,43.78-16.1-49.18-5.3-91.51,32.4-126.98,13.13-9.19,26.56-17.95,40.28-26.27,26.68-22.72,40.4-51.62,41.16-86.69,18.96,6.71,36.77,15.47,53.42,26.27Z"/>
        <path class="cls-1" d="M1561.24,394.87c95.84,56.16,146.05,140.23,150.62,252.2-4.97,113.95-56.34,199.18-154.12,255.7-1.16-169.9,0-339.2,3.5-507.91Z"/>
        <path class="cls-6" d="M1273.09,564.75v1080.61c-79.99,71.17-173.98,105.61-281.97,103.33-3.47-62.08-4.64-124.55-3.5-187.4,11.59,3.87,23.56,6.21,35.9,7.01,4.12.34,7.62-.83,10.51-3.5,24.38-31.24,41.31-66.27,50.79-105.08,4.27,13.55,6.61,27.56,7.01,42.03.68,14.05.68,28.06,0,42.03,29.99-26.37,52.46-58.18,67.43-95.45,30.87-2.16,56.27,8.64,76.19,32.4,3.36,4.97,6.28,10.23,8.76,15.76-20.72-146.1-91.07-261.4-211.04-345.9-14.94-9.51-30.12-18.56-45.54-27.15.58-194.53,0-388.93-1.75-583.22,97.33-9.39,193.08-1.22,287.23,24.52Z"/>
        <path class="cls-6" d="M985.86,540.23c1.75,194.28,1.97,387.61,1.39,582.13-104.22-54.34-214.8-69.1-330.09-46.29-2.91-121.35-4.66-242.78-5.25-364.29,24.17-25.04,48.69-49.85,73.56-74.43,58.01-45.34,123.39-74.53,196.16-87.57,21.07-3.47,43.27-6.6,64.24-9.55Z"/>
        <path class="cls-6" d="M1842.3,697.76v956.26c-53.77,111.29-132.29,201.19-235.56,269.72,39.14-58.43,70.08-121.48,92.82-189.15,8.39-25.95,14.81-52.22,19.27-78.81-41.68,72.34-95.1,134.81-160.25,187.4v-894.96h-5.25c98.73-12.67,174.34-61.12,226.81-145.37,23.18-40.74,36.31-84.52,39.41-131.35,8.28,8.27,15.87,17.03,22.77,26.27Z"/>
        <path class="cls-4" d="M1842.3,697.86c82.97,97.58,142.81,208.51,179.52,332.77,66.67,231.68,30.47,445.35-108.59,641.01,5.66-67.13,1.57-133.68-12.26-199.66-11.02,63.69-30.57,124.41-58.67,182.15v-956.26Z"/>
        <path class="cls-1" d="M652.27,711.87c.6,121.51,2.35,242.94,5.25,364.29-6.66.46-13.08,1.92-19.27,4.38-8.98,14.76-18.61,29.06-28.9,42.91-5.98,6.87-12.7,12.71-20.14,17.51-1.65-.19-3.11-.77-4.38-1.75-.58-2.33-1.17-4.67-1.75-7.01-.78-21.04-.78-42.06,0-63.05-8.88,15.72-19.69,30.02-32.4,42.91-2.33,1.17-4.67,1.17-7.01,0-3.98-17.61-4.57-35.42-1.75-53.42-44.73-11.75-71.87-40.35-81.44-85.82-18.42-10.83-35.35-23.67-50.79-38.53-16.5-22.7-19.42-47.22-8.76-73.56,19.2-52.45,56.86-80.18,112.97-83.19,51.73-10.69,97.85-32.58,138.36-65.68Z"/>
        <path class="cls-5" d="M986.78,1561.3c-1.14,62.85.03,125.32,3.5,187.4-51.42-3.37-101.04-14.75-148.87-34.15-15.3-7.21-30.19-15.09-44.66-23.64-1.2-1.46-.91-2.62.88-3.5,18.14-6.84,36.82-11.8,56.04-14.89-36.71-28.61-60.94-65.68-72.68-111.21-12.89-44.3-7.05-85.75,17.51-124.35,36.6-42.1,79.8-50.85,129.6-26.27,1.75,2.92,3.5,5.84,5.25,8.76,1.17,8.76,1.17,17.51,0,26.27-2.63,9.07-6.14,17.83-10.51,26.27-4.66,16.5-2.91,32.26,5.25,47.29,14.94,20.49,34.5,34.5,58.67,42.03Z"/>
      </g>
    </g>
  </g>
</svg>